<?xml version="1.0" encoding="UTF-8" standalone="no"?>
<svg id="svg2" xmlns:rdf="http://www.w3.org/1999/02/22-rdf-syntax-ns#" xmlns="http://www.w3.org/2000/svg" height="1200pt" width="719pt" version="1.1" xmlns:cc="http://creativecommons.org/ns#" xmlns:dc="http://purl.org/dc/elements/1.1/" viewBox="0 0 719 1200">
<g id="g4389" transform="translate(-1600)">
<path id="rect4377" d="m1826.5 6.45c-15.47 7.53-28.6 20.211-44.57 27.491-31.05 13.63-47 49.439-80.6 58.439-4.08 2.11-11.16-0.15031-13.53 4.6297 18.7 21.17 47.92 31.271 74.1 34.981-9.3 22.61-8.7906 52.509-30.991 67.939-4.95 5.12-13.609 3.8206-18.189 9.0406 9.64 7.94 24.91 7.1897 36.33 2.4297 8.9 8.76-5.8003 11.11-12.02 15.63-16.87 9.7-22.41 29.95-32.7 45.3-15.07 21.61-21.98 48.22-40.48 67.5-13.71 14.03-15.179 34.42-23.759 51.28-5.78 15.22-15.861 30.041-13.831 47.031 6.9 9.91 18.52 15.65 29.97 18.6 18.76 7.95 38.111 15.819 58.941 15.089 9.59-1.79 1.65 7.9309-0.2 11.211-17.78 20.44-23.31 47.94-39.7 69.23-12.19 17.98-20.04 42.61-8.2203 62.75 23.91 47.1 43.559 96.789 75.859 139.09 9.59 12.2 7.35 31.161 22 39.581-1.69 9.85-0.3891 18.489 3.7109 25.789-17.83 18.62-34.851 38.211-45.761 61.811-0.36 8.97-6.5197 18.53-16.03 19.45-14.7-3.54-30.78 1.9387-43.97 8.5187-13.13 2.73-31.71 5.661-34.08 22.361-18.96 7.35-28.069 29.42-25.659 48.48 4.96 9.09 17.459 7.4697 26.139 8.3297 17.74 3.65 36.541 1.65 53.731-3.35-5.21 25.25-16.971 48.93-19.031 74.85-2.05 21.05-3.3497 42.251-2.9297 63.411 1.4 5.54 9.8809-0.12 10.911 4.35-8.1 16.03-6.2109 35.239-6.4609 52.409 14.54 9.31 33.601 1.4694 49.391 8.0594 24.33 7.71 49.989 2.1703 74.639 5.5703 11.71-5.16 26.421-6.07 35.031-16.45 12.82-2.56 26.159 0.1806 38.939-2.8594 7.62-1.11 16.621-4.6109 22.991 1.2891 25.95 6.76 53.529 4.1912 79.809 1.6312 7.07-5.75 22.481-5.6809 16.761-19.161-9.07-13.7-30.121-4.4997-43.011-12.23-14.7-9-34.749-5.0606-47.339-17.741-2.07-1.89-2.52-6.3197 1.25-6.2797 9.09-1.21 20.13-7.2103 27.93-2.3703 3.6-2.65 2.7397-7.3191 1.4297-10.939-1.26-30.43-1.2897-60.97-1.6297-91.47 8.31 2.48 15.519 8.1503 24.409 8.7703 6.48 1.65 18.96 0.1097 17.52 10.58 2.66 28.4 11.5 57.399 10.35 85.409 15.89 17.48 41.54 22.08 64.07 19.27 33.62 4.23 67.539 0.13 101.29 0.65 30.55-6.1 60.681-15.659 88.791-29.039 2.1-1.18 5.5097-1.2609 6.3797-3.9109 7.82-2.67 4.8006-10.929 5.0906-17.259 6.93-50.12 13.679-100.28 20.539-150.42 2.98 11.56-0.2297 29.631 0.5703 43.141 5.63 6.05 13.25 3.9694 19.9 1.9594 1.97 9.78 15.33 16.66 24.18 10.67 15.16-5.88 10.01-24.43 7.6703-36.63 0.08-27.47-10.98-53.041-22.25-77.491-8.82-8.57-16.959-17.74-24.739-27.28 12.35-18.02 1.4388-49.75-20.331-58.22 2.48-23.47-21.959-38.92-41.859-43.48-10.45-10.28-23.26-1.3403-33.65 3.0297-18.47-2.05-41.999 11.921-44.809 29.141-26.06 0.77-52 8.3694-72.67 23.809-5.55-17.16-7.1706-37.54-13.941-55.12-3.41-19.16-19.44-35.759-39.82-35.209 0.86-16.43-3.49-34.37-17.8-44.17-13.2-26.98-3.2688-58.07-5.0188-86.73 7.72-42.12 9.6388-87.061-5.3312-127.81-14.22-22.05-12.139-52.359-6.2094-75.119 1.93-37.84 9.7394-75.29 3.6594-113.3-6.41-12.1-16.329-22.251-28.589-28.431-14.21-6.46-22.521-26.57-40.591-23.25-1.23-7.4 1.3197-15.18 3.1797-22.28 10.35 1.93 17.761-3.69 22.681-12.1 16.1-15.31 17.809-38.28 28.509-56.68-6.07-27.66 17.69-47.391 20.82-72.991 1.33-15.33-14.14-26.21-28.53-23.58-34.5-25.279-79.3-17.899-118.6-26.659zm100.68 165.38c0.4 0.11 1.2009 0.34 1.6109 0.45 0.21 1.39 0.58 3.0906-1.45 2.8406-0.33-0.25-1.0006-0.76093-1.3406-1.0109 0.3-0.57 0.8797-1.7097 1.1797-2.2797zm-173.09 37.98c0.66 0.79 1.3494 1.5609 2.0594 2.3109-1.78 2.02-4.2494-0.61093-2.0594-2.3109zm139.37 8.3922c0 0.58242 0.043 1.1437 0.1532 1.6781-0.11-0.53439-0.1569-1.0957-0.1532-1.6781zm-179.05 169.84c6 6.64-0.76 22.349 2.5 32.939-7.42-2.28-13.62-9.9091-19.85-14.039 5.33-6.04 12.98-11.38 17.35-18.9zm195.46 32.006c1.8816 0.0687 3.8565 1.8152 1.4782 4.6125-0.24 22.52 8.8603 44.151 6.2703 66.741-3.35 17.03-3.5503 34.751-2.0203 51.941 16.21 40.29 18.87 84.15 16.85 127-2.85 5.77-3.87 15.709-10.15 17.659-12.91-30.29-33.441-57.841-43.341-89.041 0.12-3.22 0.2906-6.3994 1.2906-9.4594 1.62-25.67 8.71-57.96-4.25-80.92 1.12-11.14-5.7797-25.07 4.2703-33.6 7.49-2.87 18.6-9.1797 14.82-19.08-5.03-13.53 6.81-23.53 12.5-34.33 0.2064-0.95625 1.0112-1.4376 1.9078-1.5141 0.1234-0.0105 0.2482-0.0142 0.3734-0.009zm93.945 322.5c10.783 0.38802 13.162 15.78 17.983 23.708 1.42 17.21 12.71 31.59 15.02 48.37-18.76 12.3-41.231 4.4497-62.141 5.0297-0.04-24.08-22.52-40.39-22.6-64.13 10.82-13.77 25.66 11.481 38.8 0.54062 5.95-1.8 4.3503-9.62 7.7703-12.7 1.915-0.62249 3.6268-0.87417 5.1672-0.81875zm260.84 179.52c0.4404-0.008 0.9197 0.11152 1.4344 0.38432-0.36 2.43-0.66 4.88-0.9 7.35-5.4464 4.0328-4.7912-7.6706-0.5344-7.7343zm-448.01 57.545 0.3 0.87032c-9.22 46.47 0.5888 93.89-1.8812 140.78 9.33 8.34-3.1092 24.03-1.1892 35.53-12.25-1.88-24.12-6.6394-34.89-12.759-9.33-5.69-21.49-3.9306-30-11.341 1.89-6.74 8.8803-10.571 13.47-15.341 6.19-17.34 2.0997-36.15 4.9797-54.05-2.88-29.27 19.73-50.59 33.87-73.15 4.11-2.04 6.9794-5.5897 8.1594-10.03 2.38-0.3 4.7812-0.46936 7.1812-0.50936zm484.78 8.1172c-0.1634 0.15712-0.3452 0.30728-0.539 0.45312 0.1938-0.14584 0.3756-0.29752 0.539-0.45464zm-475.26 137.4c19.065 0.099 38.167 2.1484 57.208 0.2078 0.858-0.2091 1.6148-0.1811 2.2954 0.02 0.4083 0.1209 0.7889 0.3042 1.1484 0.536-0.3595-0.2317-0.7401-0.4154-1.1484-0.536-0.6806-0.201-1.4374-0.2279-2.2954-0.018-19.04 1.9406-38.143-0.1089-57.208-0.2078zm62.658 2.711c1.3984 1.7722 2.5816 3.9936 4.1564 5.1984 12.95 11.16 31.931 8.0506 46.211 16.791 8.34 5.34 19.72 2.0491 28 5.0891 0-0.0002 0.0007 0.0001-0.01 0-8.2795-3.0363-19.656 0.2512-27.994-5.0875-14.28-8.74-33.261-5.6306-46.211-16.791-1.575-1.205-2.7577-3.4275-4.1563-5.2z" fill="#b2b2b2"/>
<path id="path170" d="m1822.3 1123.2c-3.7703 0.8679-1.8296 8.0817-3.3508 11.667-1.3595 7.7522-2.9443 15.544-2.825 23.454 5.4532 3.2534 7.989 9.9622 6.9141 16.108 19.172 1.4018 38.255-2.8443 57.223-3.7637 21.125 10.293 45.401 6.8886 68.02 6.4512 11.532-1.2758 23.225-5.4485 32.053-12.961 2.928-4.4785-0.9781-9.6551-5.7539-10.172-3.2267-0.8756-6.7756-1.5889-8.4981-1.4375-9.5908-2.2312-20.392 0.4516-28.785-5.9628-14.126-7.2721-32.728-4.532-44.445-16.459-2.1989-4.139-6.4207-8.3755-11.467-6.5469-19.544 1.7398-39.414-0.5708-59.084-0.377zm-145.44 2.7032c-11.438 13.411-6.7956 32.286-8.2676 48.318-2.2322 5.3781 1.4864 5.6999 6.0332 5.541 39.224 3.2692 78.839 16.77 118.25 7.6192 9.827-2.3443 19.269-6.2846 27.82-11.666 1.0967-5.6831 0.7728-14.55-6.5812-15.576-13.806-3.8143-27.827-7.8606-39.862-15.909-10.328-2.4923-21.24-4.4358-29.018-12.084-22.427 8.0124-46.002-0.2155-67.502-7.2676l-0.6473 0.7623zm292.41 30.801c2.0658 6.4071-6.779 9.9569-11.887 10.274-17.635-1.3474-35.525-1.3562-52.826-4.6289 4.6142-4.0558 11.69-0.2219 16.944 0.5314 10.634 2.4927 21.243-3.1914 31.5-4.7697 5.3435-1.3566 10.97-1.1364 16.27-1.4063zm-165.1 8.3c2.5818-0.2378 8.3279 3.4732 4.5743 5.6621-13.929 6.4281-30.536 7.446-44.658 1.0938-8.0153-1.6786-16.486 4.3681-24.057 0.6308-3.3367-3.2715 2.8097-1.5027 4.8103-1.7845 10.774 0.2695 21.709-0.3928 32.295 1.4349 7.0415-7.0849 17.861-3.5109 26.451-7.0449h0.3046l0.2793 0.012z" fill="#151515"/>
<path id="path4380" d="m1820 467.39c-3.8 8.27-3.1591 18.83-8.8391 26.05-7.64 1.3-17.42-1.2909-24.25 0.43907 5.6147-0.41016 10.417 5.6246 3.4172 6.1969 1.5461-0.003 3.1764-0.006 4.2328-0.006 1.95-1.68 3.2691-4.9806 6.4891-1.6906 0.12 97.75-0.6291 195.56 0.3609 293.29 1.27 32.15 0.2897 64.409 0.4797 96.609 2.34 2.97 8.38 13.15 11.05 6.6297 7.3-3.33 15.54-2.8594 23.25-4.6094 9.39-25.39 35.43-42.16 45.42-68.02-0.21-22.71-0.3206-47.319-12.591-67.339-14.27-31.91-26.009-65.02-39.209-97.45-11.22 3.94-14.88-33.511-3.6703-17.491 21.65 40.53 33.869 85.98 54.639 127.18 5.83 18.28 6.81 38 5.8 57.05-9.11 25.15-34.12 41.331-43.33 65.641 16.25-2.4 32.471 0.45 48.911-0.15 19.47 1.39 38.309 9.2697 57.719 2.9797-5.1-1.98-1.5497-7.1594-1.0797-10.909 2.63-16.62 11.21-31.291 17.07-46.841 10.84-19.27-2.7094-40.79-12.809-57.1-10.31-28.64-17.31-59.101-33.7-85.241-13.93-31.81-33.481-60.979-45.441-93.589-1.81-8.73 3.5394-4.821 5.0094-0.0609 0.12-3.22 0.2906-6.3994 1.2906-9.4594-12.93 2.33-26.77 4.4494-36.47 14.259-7.76-2.95 3.34-10.22 7.3-11.7 9.18-7.4 31.17-1.0491 26.07-18.889-0.2801-0.1895-0.5416-0.34385-0.7953-0.48437 0.2536 0.14045 0.5153 0.29499 0.7953 0.48437 3.65-24.48 3.52-50.621-7.25-72.491 3.69-8.92-2.2097-16.949-2.2297-21.789-16.07-3.13-31.921-7-47.641-11.5zm-29.672 32.686c-0.8686 0.001-1.7846-0.00034-2.3781 0.003 0.9127 0.0584 1.6983 0.0524 2.3781-0.003zm-63.539-28.234c-3.4064 0.17752-5.7144 1.9025-4.4594 7.0875-14.31 17.75-23.55 38.82-33.08 59.35-13.62 20.25-30.869 44.53-20.509 70 16.6 35.95 34.64 71.16 52.47 106.48 10.53 18.22 26.18 33.591 33.23 53.761 3.18 7.44 3.71 16.79 11.9 20.8 4.23 4.42 2.3503 12.84 1.9203 19.37 0.69 4.94 9.2997 1.1694 8.5797 6.9594-23.85 23.86-45.471 52.28-57.591 83.5 10.77 0.34 21.81 0.70064 31.4-4.8594 8.41-6.24 24.73 16.09 22.38-0.2 0.1-1.12 0.3509-2.1903 0.7609-3.2203-0.4-5.18 9.03 0.01 6.15-4 0.35-128.98-0.76-258 1-386.93-10.04-14.68-28.84-17.04-43.1-25.9-3.14-1.005-7.6453-2.3759-11.052-2.1984zm147.26 100.16c0.1752-0.007 0.3634 0.0108 0.5578 0.0406-0.1944-0.0298-0.3826-0.048-0.5578-0.0406zm-0.35 0.0422c-0.038 0.007-0.074 0.019-0.1109 0.0281 0.037-0.009 0.073-0.0208 0.1109-0.0281zm1.075 0.0297c0.1851 0.0378 0.3777 0.0879 0.5813 0.16094-0.2034-0.0729-0.3964-0.12315-0.5813-0.16094zm-1.3844 0.0562c-0.1612 0.0556-0.3145 0.1268-0.4593 0.21562 0.1446-0.0886 0.2984-0.16009 0.4593-0.21562zm2.0672 0.14219c0.2075 0.0793 0.4268 0.18227 0.6547 0.3-0.228-0.11778-0.4471-0.22065-0.6547-0.3zm-2.6109 0.13125c-0.1338 0.0896-0.2613 0.1911-0.3828 0.30625 0.1216-0.11516 0.249-0.2167 0.3828-0.30625zm-0.4344 0.35156c-0.1209 0.11927-0.2345 0.25532-0.3453 0.39688 0.1106-0.14128 0.2246-0.27782 0.3453-0.39688zm-0.7 0.90937c-0.026 0.0422-0.055 0.0786-0.081 0.12188 0.026-0.0432 0.055-0.0797 0.081-0.12188zm-0.4765 0.85313c-0.08 0.15987-0.1566 0.33871-0.2344 0.50625 0.078-0.16697 0.1547-0.3469 0.2344-0.50625zm-1.3094 2.875c-0.1344 0.28311-0.2727 0.56227-0.4203 0.83438 0.1473-0.27163 0.2861-0.5518 0.4203-0.83438zm-0.4875 0.94843c-0.1259 0.22657-0.2578 0.44689-0.3969 0.65938 0.1392-0.21263 0.2709-0.43264 0.3969-0.65938zm-0.5844 0.925c-0.1174 0.1651-0.2402 0.32337-0.3687 0.475 0.1285-0.1516 0.2513-0.30993 0.3687-0.475zm-0.6766 0.82032c-0.027 0.0274-0.053 0.0561-0.081 0.0828 0.028-0.0267 0.054-0.0554 0.081-0.0828zm-0.6 0.51719c-0.037 0.0268-0.076 0.0509-0.114 0.0766 0.038-0.0257 0.077-0.0497 0.114-0.0766zm-20.081 28.783c-0.6265 0.1178-1.26 0.20375-1.9 0.25312 0.64-0.0494 1.2735-0.13532 1.9-0.25312zm-14.934 0.175c0.2548 0.24806 0.5363 0.47149 0.8422 0.67032-0.3059-0.19883-0.5874-0.42226-0.8422-0.67032zm10.962 1.1078c-0.7609 0.28219-1.5802 0.50089-2.4219 0.64844s-1.7066 0.22299-2.5578 0.22031c0.8512 0.003 1.7161-0.0728 2.5578-0.22031 0.8417-0.14755 1.661-0.36625 2.4219-0.64844zm-9.1359 0.0875c0.8702 0.37881 1.8572 0.61264 2.8937 0.71718-1.0365-0.10454-2.0235-0.33837-2.8937-0.71718zm84.081 353.62c-0.9633 0.009-2.1722 0.29312-3.6734 0.92184-10.06 8.21-23.469 2.68-34.639-0.25-8.14 13.22-24.441 8.2697-37.311 7.9797-6.16 8.75-17.559 4.5206-26.239 6.5906l0.3 0.87032c6.05 9.35 0.1791 22.21 0.9891 32.85-0.81 35.21 3.5206 70.169 2.1906 105.42 32.97 2.9 68.269 2.6303 98.809-7.9797-0.08-43.23-5.0897-86.739 0.2703-129.84 0.7875-3.2113 6.0465-16.628-0.6969-16.562zm-109.04 15.752c-17.01 2.25-33.989 5.8306-51.289 3.0906-18.22 8.12-40.05-2.5003-60.1 1.6297-1.8787 0.72-4.9575-0.12584-7.4406-0.075-1.9313 0.0394-3.5028 0.62088-3.8703 2.9046-4.35 17.83-9.5988 35.43-15.219 52.9-4.39 26.44-5.7706 53.41-5.3406 80.18 25.05-2.29 52.41 22.911 75.08 5.3109 10.22-1.56 19.371-10.71 19.541-21.33 0.48-19.3-0.5-38.821 3.05-57.911 2.65-21.65 21.11-35.839 30.38-54.489 1.83-4.51 7.13-13.531 7.05-2.1813 4.11-2.04 6.9794-5.5897 8.1594-10.03z" fill="#663600"/>
<path id="path6" d="m1824.4 12.21c15.09-2.22 30.3 6.5 45.94 4.15-23.15 14.12-31.87 40.85-41.72 64.47-2.23 5.59 1.1 10.69 2.12 15.87-11.8 10.12-9.54 27.98-7.64 41.75l-0.03 0.82c-6.61-1.66-11.26-7.96-18.93-6.52-5.2-7.62 4.36-19.67-0.34-27.68-6.64-2.51-18.36-2.87-20.85 6.04-4.47 6.71 2.19 13.85 1.65 20.86-29.66-7.11-65.36-9.45-87.28-32.99 23.22-4.73 40.48-23.47 57.65-39 19.25-21.26 48.18-28.92 69.43-47.77z" fill="#ffccfc"/>
<path id="path8" d="m1883.3 17.991c-24.93 4.17-35.98 31.009-44.77 51.959 20.34 13.73 21.67-27.23 41.12-21.87 22.35 10.86 47.2 17.81 72.05 16.08 6.85-3.95 13.07-21.979 17.27-5.9891 2.77-14.36-11.859-23.93-25.009-20.83-17.8-11.78-39.151-19.28-60.661-19.35zm-116.1 115.1c-1.9726 0.0557-3.5344 0.84781-3.775 3.4859-6.82 26.26-10.19 60.161-39.12 71.841 1.79 4.86 13.491 0.67 18.211 0.85 3.07-3.79 15.22-8.9909 11.55 0.53907 0.66 0.79 1.3494 1.5609 2.0594 2.3109 11.27-6.55 14.229 0.14031 27.659-5.5797 0.53-20.63-0.049-41.281 0.3109-61.911-4.67 5.03-13.59 5.8006-17.6-0.35938-2.24-5.5 3.7403-9.3006 8.4203-10.091-1.9631-0.0112-5.1794-1.1576-7.7156-1.0859zm56.277 5.3547c-0.1278-0.007-0.2613-0.006-0.4016 0.002l-0.03 0.82031c-0.29 2.93 0.7797 5.8191 0.4297 8.7391 1.9859-2.5478 3.962-9.3561 0-9.5609zm-20.6 14.17c0.03 18.39 0.46 36.791-0.35 55.161 16.79-1.64 25.941-20.54 26.591-35.62-6.72 8.7-7.5812 27-19.781 28.5-4.54-11.2 12.071-19.83 8.2109-31.82-11.36 0.66-5.5903-13.92-14.67-16.22z" fill="#f3ff47"/>
<path id="path10" d="m1876.2 47.594c-16.247 0.03322-18.608 35.228-37.676 22.356-10.38 11.55-2.2591 32.42 12.161 29.3 3.89 4.9 6.4297 13.901 9.8297 16.341 1.36-17.79 3.57-40.08 17.6-51.52 19.63 10.44 41.65 16.62 64.12 11.03 10.89-4.37-1.9497 8.3997 5.5703 6.6297 9.28-3.27 3.0388 10.731 5.7188 15.311 4.6-13.14 14.591-24.61 15.441-38.87-4.2-15.99-10.42 2.0391-17.27 5.9891-24.85 1.73-49.7-5.2197-72.05-16.08-1.2156-0.335-2.3606-0.48815-3.4438-0.48594zm-101.3 86.586c-4.68 0.79-10.66 4.5906-8.4203 10.091 4.01 6.16 12.93 5.3894 17.6 0.35938 1.89-6.95-2.7897-10.24-9.1797-10.45zm30.891 3.2359c-4.7231 0.12328-3.7037 8.4512-2.9312 15.194 9.08 2.3 3.3103 16.88 14.67 16.22 3.86 11.99-12.751 20.62-8.2109 31.82 12.2-1.5 13.061-19.8 19.781-28.5 3.26-10.27 2.0894-21.72 0.8094-32.32-2.05 8.19-4.1794 19.14-9.9094 25.17-6.5-6.16 7.47-23.939-7.35-24.609-3.0725-2.145-5.285-3.0161-6.8594-2.975z" fill="#d6e231"/>
<path id="path12" d="m1881.2 69.158c-1.6661-0.03467-3.3813 1.3453-4.2813 2.7828-7.63 11.88-12.091 26.049-11.041 40.269 2.34-1.4 4.6506-2.8297 6.9906-4.2297 0.15-1.22 0.2894-2.44 0.4594-3.65 2.48-8.28 3.6494-19.37 9.8594-25.1 20.67 9.28 44.71 6.4406 65.07 14.141 2.02-7.25-5.8497-8.05-8.5297-13.2-18.81 1.81-39.85 2.9403-55.77-9.1297-0.7763-1.3312-1.7582-1.862-2.7578-1.8828zm-40.53 42.855c-0.2709 0.007-0.5484 0.0227-0.8328 0.0469-3.39 3.79-2.1788 10.771 4.7312 9.2609 1.21 5.06-6.4606 3.1891-9.7906 2.7391-0.2 2.45-0.2903 4.9003-0.3203 7.3703 0.27 1.58 0.8403 3.0703 1.5203 4.5203 12.265 7.8159 21.759-24.407 4.6922-23.938zm9.3172 66.347c-11.89 3.15-5.6097 15.231 2.6703 17.891 10.09 9.8 25.001 7.6706 37.861 7.6906 5.58-0.24 2.4491-6.6812 1.4391-9.8312-13.27-5.61-28.73-8.73-41.97-15.75zm-138.8 184.57c-2.85 14.93-20.079 25.561-34.409 28.611-4.66-0.55-6.5112 2.6288-7.2312 6.3688 8.77-1.53 25.25 13.461 26.85 3.5906 10.84-7.34 16.941-20.18 23.931-30.08 8.89-5.75-3.6106-7.6806-9.1406-8.4906zm212.73 40.25c-3.4877 0.17131-7.8271 4.4741-9.4015 1.2703-4.38 16.26 3.9803 32.289 3.9203 49.059 9.62 29.64-4.7306 60.27 1.6594 90.3 8.21 20.76 12.521 42.831 16.541 64.711-0.37 28.35 7.5206 59.94-10.309 84.65 4.4 8.62 8.3988 17.57 12.819 26.17 0.14-0.38 0.4303-1.1506 0.5703-1.5406 3.41-13.01 18.221-6.9397 27.911-6.7297 5.98 3.35-1.2309-10.911 4.8391-7.5109 1.2 5.27 0.5 12.85 6.7 15.25 9.06 3.7 4.2003 15.881 6.7203 22.981 7.99 4.26 3.08-10.331 4.9-14.741-2.64 2.78-2.8794-0.77-3.1094-3 0.6-12.1-5.7812-23.68-14.181-31.8-10.98 6.45-31.029-3.9797-25.009-17.63 10.02-23.34-7.4903-44.79-3.5703-68.18-4.34-20.63-0.5394-43.421-10.759-62.781-2.54-10.46-3.8606-21.419-3.6906-32.189 6.77-34.97-6.3694-69.76-2.6594-104.87-0.8937-2.7219-2.3037-3.4982-3.8891-3.4203zm-247.98 2.0797c-1.2 8.08 9.1703 8.7212 14.57 11.281 12.38 2.79 21.15 13.839 25.62 25.019 13.12 17.94 43.269 7.7712 48.859-11.719-0.51-4.56-7.8094-2.0403-10.759-3.5703-4.82 1.53-7.69 8.0791-13.4 7.7891-25.96 2.02-40.101-27.15-64.891-28.8zm108.49 20.659c-3.1834 0.007-6.3647 0.13438-9.5203 0.34063 4.48 16.42 29.299 2.9403 36.259 17.02-4.99 11.59-11.78 22.561-18.92 32.991-4.01 5.05-17.289-0.0606-16.109 9.5094 10.66 1.87 21.259 4.6703 32.209 3.1703 4.42-10.76 8.3606-22.31 7.9906-34.15 1.34-5.17 9.6803-1.2106 11.52-6.3906 0.55-4.42 0.7297-10.31-4.0703-12.33-11.749-7.9544-25.565-10.192-39.359-10.161z" fill="#e4bca8"/>
<path id="path14" d="m1883.2 79.23c-6.21 5.73-7.3794 16.82-9.8594 25.1 9.57-8.75 24.881-8.5394 34.941-0.85938 0.29 8.09-7.2212 1.4994-11.431 0.45938-8.47-3.64-15.779 5.41-23.969 4.05-2.34 1.4-4.6506 2.8297-6.9906 4.2297-0.99 4.59 1.0997 14.771-6.2703 12.561-6.83-9.57-9.3794-24.23-23.259-24.53-13.52 4.78-10.091 23.14-10.091 34.13 3.06 2.1 6.41-0.41062 8.2-2.9406 0.03-2.47 0.1203-4.9203 0.3203-7.3703-1.77-6.69-1.2703-18.159 8.0297-17.739 5.07 1.49-0.4003 4.7091-2.9703 5.7391 18.2-1.55 8.6006 31.831-3.8594 23.891-1.34 23.79 1.9097 53.169-17.92 72.109 22.22 15.59 49.84 12.24 75.53 11.82-1.76-8.55 12.43-23.88-1.6297-25.77 1.01 3.15 4.1409 9.5912-1.4391 9.8312-12.86-0.02-27.771 2.1094-37.861-7.6906-8.28-2.66-14.56-14.741-2.6703-17.891-10.46-8.36-4.8691-22.589-5.7891-33.869 8.94-0.22 0.5003 18.889 4.9203 25.239 13.43 14.95 37.619 11.42 52.439 24.2 13.04 3.99 18.581-10.899 25.761-18.809-0.33-0.25-1.0006-0.76093-1.3406-1.0109-15.21 2.96-40.309 4.0606-42.009-16.909 6.56 2.32 10.71 13.12 18.9 8.5203 7.62-1.73 24.619-5.9406 24.289 6.1094 0.4 0.11 1.2009 0.34 1.6109 0.45 9.73-10.47 8.8488-27.31 17.919-38.65 5.07-4.24-6.6297-12.65-6.7797-5.7703 2.25 6.43-6.5097 12.61-11.23 7.4703-4-4.01 1.68-9.8197-1.35-13.48 5.74-2.57 14.501-0.82969 21.041 0.87031 0.68-9.47-9.51-10.66-16.4-10.75 1.02-6.75 11.4-1.9306 16.38-1.2406-0.05-5.79-0.091-11.579-0.091-17.359-20.36-7.7-44.4-4.8606-65.07-14.141zm10.267 31.855c10.104-0.16952 25.315 5.9847 8.0328 7.1953 1.8 13.31-20.729 14.64-18.069 0.85-3.87 1.42-11.15-0.66969-10.8-4.8297 5.16 0.53 10.219-0.18 15.119-1.95 1.3256-0.85125 3.3855-1.2265 5.7172-1.2656zm25.614 10.356c5.9 0.29-0.1003 13.909 7.1797 16.369 9.31 4.14 1.6494 13.07-5.0906 14.3 15.39-10.29-11.799-16.179-2.0891-30.669zm-9.8359 23.578c4.5366-0.23577 8.4265 4.2016 9.3547 8.2516-4.55 0.13-11.679-2.2906-10.269-8.1406 0.3075-0.0588 0.6116-0.0952 0.9141-0.11094zm-10.905 32.941c5.79 0.81 12.56-0.61876 17.77 2.2312-2.21 3.92-17.52 3.5088-17.77-2.2312zm-228.5 161.99c-17.28 16.08-18.159 41.77-29.289 61.67-6.59 14.29-18.69 36.659 1.8 45.059 25.12 8.79 49.749 23.29 77.409 20.38 20.87-1.9 37.16 13.2 56.3 18.72-1.18-9.57 12.099-4.4594 16.109-9.5094 7.14-10.43 13.93-21.401 18.92-32.991-6.96-14.08-31.779-0.60031-36.259-17.02-7.95-10.52 11.44-0.51938 6.7-11.159-9.84-0.78-21.69 2.9203-27.38 11.17 2.95 1.53 10.249-0.98969 10.759 3.5703-5.59 19.49-35.739 29.659-48.859 11.719-4.47-11.18-13.24-22.229-25.62-25.019-5.4-2.56-15.77-3.2012-14.57-11.281-7.85-0.64-25.591-8.02-6.3906-7.35 0.72-3.74 2.5712-6.9188 7.2312-6.3688 14.33-3.05 31.559-13.681 34.409-28.611-14.16-6.82-30.94-10.22-41.27-22.98zm287.45 56.3c-10.82 3.01-25.679 9.5097-35.159 0.32969-2.43 1.92-11.791 3.5203-7.6906 7.8703 2.29 4.66 10.431-6.56 13.291 2.15-3.71 35.11 9.4294 69.9 2.6594 104.87-0.17 10.77 1.1506 21.729 3.6906 32.189 10.22 19.36 6.4194 42.151 10.759 62.781-3.92 23.39 13.59 44.84 3.5703 68.18-6.02 13.65 14.029 24.08 25.009 17.63 8.4 8.12 14.781 19.7 14.181 31.8 0.23 2.23 0.4694 5.78 3.1094 3 6.47-12.81 4.01-29.369-3.85-41.059-28.43-20.64-13.181-62.02-15.741-91.65 6.82-43.6 11.111-89.95-4.2188-132.27-14.15-19.07-9.6709-43.73-9.6109-65.82zm-5.2938 315.79c-0.7103-0.0367-1.5397 0.06-2.5062 0.31406-14.75 8.07-4.38 27.67 1.4 38.6 9.16-1.55 3.69-14.79 5.1-20.88-1.3685-4.8031 2.8727-17.679-3.9938-18.034zm10.334 1.0141c-1.07 10.55-7.9797 35.17 7.6703 37.7 2.33-5.12 1.54-13.4-1-18.67 5.94-6.68 6.4888 7.2597 6.5688 10.63-6.93 11.31 14.42 18.49 17 5.45-18.96 1.21-4.9197-23.579-18.68-27.069 0.63 2.73 2.0509 6.39-1.8891 7-3.52-4.56-2.7803-14.661-9.6703-15.041z" fill="#fdd3bd"/>
<path id="path20" d="m1796.5 109.79c-0.7194 0.017-1.6234 0.26563-2.7422 0.81876-2.92 0.58-8.5512 3.4206-2.8812 4.7906 0.69 101.87-2.3091 203.68-1.8891 305.55 1.72 0.01 5.1794 0.0203 6.9094 0.0203 0.41-100.7-0.4491-201.46 0.4109-302.15 2.5482-2.4216 4.0771-9.1214 0.1922-9.0297zm-1.9422 390.28c-1.65 0-4.9609-0.00062-6.6109 0.009-1.54 125.86-1.7797 255.54-2.0297 382.89-4.09 8.24 5.38 3.7397 8 4.9797 0.08-129.29 2.1706-258.59 0.6406-387.88zm312.24 315.06c-8.69 1.89-13.49 9.5797-19.45 15.33 2.35 6.15 0.3 18-4.5 18.47-2.66 4.43-1.0097 11.23-2.3797 16.45 12.95-1.46 16.041-15.72 26.241-20.87 13.72-1.73 28.879 1.3503 40.389 9.2203 12.86-4.9 27.401-5.1403 39.211-12.82-6.33-10.41-17.431-18.32-29.891-11.68-16.71-2.33-34.81-4.96-49.62-14.1z" fill="#edd3e4"/>
<path id="path26" d="m1889.9 119.08c-1.68 9.8 8 0.75 0 0zm44.5 7.9109c-7.27 7.43 6.15 4.07 0 0zm-68.975 765.88c-11.565-0.17504-23.416 6.0531-32.666 2.889-6.56 4.96-18.56-2.089-21.12 7.611 49.39 2.92 99.26 3.669 148.52 7.589 3.55 4.78-4.4303 10.16-7.3703 13.9-10 8.86-17.2 25.491-33.1 22.811-97.03 4.43-194.03 10.16-291 14.17-6.96-7.49 11.02-14.47 14.17-22.05 0.62-2.46 1.2397-5.2303 4.3797-4.0203 5.5-3.56 8.0406-11.99 15.091-13.75 36.2-5.01 72.45-9.82 108.62-15.05-2.75-6.12-12.891-9.991-19.741-8.061-13 9.1-29.63 0.35128-43.62 5.8813-18.26-5.16-35.33 7.0087-52.48 9.4687 4.28 9.76-18.849-2.1387-21.159 10.931 0.89 12.36-13.621 12.619-19.891 20.059-0.83 4.1 7.0903 2.6194 4.6203 7.3094-13.32 0.82-16.78 19.44-9.9797 28.72 36.61 13.17 72.699-3.939 109.76-1.939 11.49-1.67 24.409 7.789 34.159-1.361 16.08 0.78 32.66 2.86 48.3-2.25 13.34-3.64 29.761 2.7697 40.791-7.6203 11.87-0.45 27.91 5.08 35.87-6.9 10.36 0.94 20.72 4.3313 31.28 2.3313 9.51-9.47 25.981 1.2897 37.141-5.8203 25.02-2.01 36.45-34.75 22.98-54.87-12.04-0.34-23.26-7.51-35.25-2.95-19.6-0.77-38.76-8.2897-58.72-5.0297-3.1303-1.4-6.3461-1.951-9.5844-2z" fill="#fff"/>
<path id="path50" d="m1809.5 209.78c-2.0075 0.0473-4.0953 0.52344-6.2953 1.575-0.48 68.46-0.099 136.94-0.1891 205.41-2.75 6.91 3.9494 6.3906 7.9594 7.3906-1.94-1.95-3.87-3.9994-5.05-6.5094 18.26-2.36 42.221 17.48 32.341 36.08 16.01 4.6 34.549 3.47 50.339-2.9 1.84-18.74 19.29-30.621 23.62-48.461-13.92 7.51-31.979 9.7803-41.359 23.72-1.18 4.65-5.6306 3.1009-7.3406 0.41093-3.24-0.85-7.7797-3.61-4.3297-7.15 16.06-16.1 36.36-29.531 57.63-36.461 10.79-4.08 8.4897-29.18 21.13-23.97 5.38-28.77 2.31-59.739 17.25-85.969-0.22-2.5 5.4209-3.0103 4.5109-0.27031-3.47 8.56-6.43 17.29-9 26.17 11.4 25.62-4.2906 56.52 0.9094 84.25 2.59 5.6-10.11 9.4488-6.9203 11.019 4.98-1.04 9.9706-2.1494 14.841-3.6594 1-16.47 0.2603-33.411 5.6703-49.341 2.39-18.6-1.8703-37.399-0.1203-56.119 2.05-17.91-14.601-29.901-28.441-37.641-11.65-5.56-18.379-17.96-30.259-23.02-22.03 1.16-44.16 0.50093-66.13-1.1891-11.408-1.3922-19.925-13.621-30.766-13.366zm-25.484 1.3656c-18.58 1.54-34.131 14.199-50.061 22.819-25.27 30.9-39.269 69.45-60.839 102.92 10.89 11.02 26.4 14.87 39.87 21.63-1.21-5.26 0.9397-10.29 4.0297-14.45-9.52-6.33-18.921-12.99-29.011-18.43-0.19-1.84 0.56-4.1091 2.85-3.4391 11.37 2.83 19.211 12.8 29.961 17 15.05-13.49 30.27-26.891 45.62-39.961 6.8 0.78 5.1591 13.521-0.3109 16.711-2.39 2.35-4.6891 4.8088-6.7391 7.4688-16.74 20.82-23.001 48.281-25.331 74.381-2.5 5.9-4.41 14.8 1.45 19.13 17.13 0.45 21.431-22.83 40.641-17.2 3.34 5.17-9.7297 7.9294-7.8297 11.659 4.61 0.22 9.2391-0.11 13.839 0.3 0.11-66.85 1.2409-133.7 1.8609-200.54zm47.909 15.019c15.6 11.66 37.39 14.721 56.85 14.831 4.64-1.24 8.4306 1.4797 11.641 4.2797 0.39-0.11 1.1803-0.31969 1.5703-0.42969 2.82-1.88 15.789 6.8491 6.4391 8.6891-31.72 5.1-68.9 11.091-96.82-8.1891-5.92-5.51 7.1503-6.61 5.5703-12.3-1.84-2.3-8.0794-3.1309-6.5094-6.6109 7.15-1.31 12.759 5.6909 18.359 8.9609 5.25-0.78 0.36-7.3312 2.9-9.2312zm-77.9 4.93c6.94 1.57 11.99 9.5303 10.82 16.57-6.43-0.32-6.9803-12.29-10.82-16.57zm10.08 30.43c3.28 8.05 7.3506 23.121 4.8406 33.741-2.89-10.54-4.4606-22.631-4.8406-33.741zm127.68 90.844c2.709-0.16221 5.1625 1.3906 3.2875 4.6469-7.5 6.4-15.99 12.42-24.27 17.53-0.18 0.55-0.5497 1.6297-0.7297 2.1797-12 12.26-30.64 17.22-46.87 22.23-9.11-0.77-10.65-12.489-1.2-12.189 1.46-0.03 2.91-0.22969 4.35-0.42969 18.62-10.98 43.371-16.98 61.161-31.82 0.93-1.335 2.6465-2.0496 4.2719-2.1469zm298.22 401.44c-9.2314 0.1869-16.174 9.9116-26.088 8.2141-10.37-1.32-20.361 3.7406-26.941 11.491-0.96 5.78 6.6906 1.0303 9.5406 2.1203 26.92 10.83 51.999 30.41 80.759 38.1 11.09 8.47 27.491 5.2287 36.941 16.419 3.62-22.77-31.12-21.63-24.72-44.35-7.26-19.32-28.64-24.2-45.38-31.43-1.4275-0.42375-2.7937-0.59076-4.1125-0.56407z" fill="#e5faff"/>
<path id="path56" d="m1831.9 226.16c-2.54 1.9 2.35 8.4512-2.9 9.2312 20.31 14.9 47.761 17.1 71.391 9.8797-3.21-2.8-7.0006-5.5197-11.641-4.2797-19.46-0.11-41.25-3.1712-56.85-14.831zm-14.75 6.8812c1.58 5.69-11.49 6.79-5.5703 12.3 27.92 19.28 65.1 13.289 96.82 8.1891 9.35-1.84-3.6191-10.569-6.4391-8.6891 2.78 0.39 4.6591 4.3894 0.9891 5.0094-29.03 9.78-62.88 3.9406-85.8-16.809zm133.54 65.8c-7.58 30.94-0.4106 68.329-23.791 94.209 3.39 4.56 14.7 4.1894 17.78 1.0594-3.19-1.57 9.5103-5.4188 6.9203-11.019-5.2-27.73 10.491-58.63-0.9094-84.25zm-184.28 0.38907c-15.35 13.07-30.57 26.471-45.62 39.961 3.92 2.33 8.22 5.25 12.8 5.4 6.33-13.48 18.409-22.37 28.939-32.37 2.54-0.93 2.7703 2.1103 3.5703 3.7203 5.47-3.19 7.1109-15.931 0.3109-16.711zm-7.05 24.18c-22.12 12.03-24.471 39.911-38.781 58.561-1.27 11.38-0.3288 23.07-0.9688 34.57 9.74-3.17-2.2303 9.2397 6.5797 9.6297 17.72 9.64 26.92-11.671 42.1-14.791-1.9-3.73 11.17-6.4894 7.8297-11.659-19.21-5.63-23.511 17.65-40.641 17.2-5.86-4.33-3.95-13.23-1.45-19.13 2.33-26.1 8.5912-53.561 25.331-74.381zm-42.37 20.65c-3.09 4.16-5.2397 9.19-4.0297 14.45 7.77 4.4 17.429 2.8406 18.059-7.4594-4.08-3.05-9.4697-4.5406-14.03-6.9906zm174.79 8.3141c-1.6254 0.0973-3.3419 0.81187-4.2719 2.1469-17.79 14.84-42.541 20.84-61.161 31.82 15.71-0.34 29.45-8.7306 44.45-11.791 8.28-5.11 16.77-11.13 24.27-17.53 1.875-3.2562-0.5785-4.8091-3.2875-4.6469zm42.964 5.8281c-9.1397 0.0199-8.1685 20.981-17.947 24.678-21.27 6.93-41.57 20.361-57.63 36.461-3.45 3.54 1.0897 6.3 4.3297 7.15 13.85-23.66 45.8-21.37 63.33-40.67 4.12-8.74 9.37-17.281 11.1-26.911-1.185-0.48844-2.2374-0.70988-3.1828-0.70782zm-64.7 18.53c-14.75 8.25-31.249 13.2-48.009 15.08-3.55 0.34-2.3409-4.1091-0.061-5.0391-9.45-0.3-7.91 11.419 1.2 12.189 16.23-5.01 34.87-9.9697 46.87-22.23zm-60.689 40.722c-1.1761-0.0202-2.34 0.0416-3.4812 0.18906 1.18 2.51 3.11 4.5594 5.05 6.5094 7.16 3.76 14.93 6.6506 20.95 12.291 3.18 7.14 1.2906 18.8-7.6594 20.08-5.95-1.91-7.0397 13.039-0.5297 7.8391 16.41 2.38 32.91 6.9506 49.4 10.291 8.2-4.58 24.959-11 15.469-23.83-15.79 6.37-34.329 7.5-50.339 2.9 9.2625-17.437-11.217-35.966-28.859-36.269zm327.6 356.07c-4.18 1.73-9.2788 7.1997-9.6688 12.38 11.92-1.6 19.369 7.8497 28.639 13.13 19.23 7 40.621 19.231 48.241 37.861 21.15-8.31 43.28 0.36872 60.03 14.169 1.02-6.77 1.59-14.49 0-20.9-9.45-11.19-25.851-7.9487-36.941-16.419-28.76-7.69-53.839-27.27-80.759-38.1-2.85-1.09-10.501 3.6597-9.5406-2.1203zm-5.9391 78.63c-13.13 9.84-30.09 16.931-39.03 31.141-4.1 6.65 1.6494 9.5787 7.1094 10.869 13.95-13.75 26.32-30.019 45.08-38.509-4.32-1.43-8.6494-2.98-13.159-3.5z" fill="#cbdde2"/>
<path id="path96" d="m1726.8 471.84c-3.4063 0.17751-5.7144 1.9025-4.4594 7.0875 19.06 3.22 32.57 19.36 51.67 22.47-0.46 24.22-12.589 47.48-5.3891 72.15 0.45 41.81-4.6909 83.86 0.2391 125.67-5.32 29.85 12.091 61.6-2.5094 90.1 4.23 4.42 2.3503 12.84 1.9203 19.37 0.69 4.94 9.2997 1.1694 8.5797 6.9594 0.63-0.07 1.8794-0.19 2.5094-0.25 0.01 23.79-1.6694 47.8 0.5906 71.47 0.35-128.98-0.76-258 1-386.93-10.04-14.68-28.84-17.04-43.1-25.9-3.14-1.005-7.6453-2.3759-11.052-2.1984zm147.26 100.16c-3.4702 0.14641-3.3572 7.2797-7.1922 9.0266-11.77 7.92-25.581 13.21-35.641 23.57-1.37 7.9 9.5097 8.2506 14.38 5.0406 10.24-0.79 18.65-10.96 28.32-10.62-1.81-8.73 3.5394-4.8209 5.0094-0.0609 0.12-3.22 0.2906-6.3994 1.2906-9.4594-12.93 2.33-26.77 4.4494-36.47 14.259-7.76-2.95 3.34-10.22 7.3-11.7 9.18-7.4 31.17-1.0491 26.07-18.889-1.275-0.86249-2.2664-1.201-3.0672-1.1672zm-47.9 68c21.65 40.53 33.869 85.98 54.639 127.18 5.83 18.28 6.81 38 5.8 57.05-9.11 25.15-34.12 41.331-43.33 65.641 16.25-2.4 32.471 0.45 48.911-0.15-0.56-12.65-17.731-5.871-25.341-9.061 16.6-27.71 31.761-62.289 22.441-95.009 0.12-19.56-4.6809-39.171-15.211-55.791-14.97-30.38-24.569-64.389-47.909-89.859zm42.88 114.94c2.15 21.72 1.7703 43.859 4.1203 65.689-4.72 6.41-14.93 4.21-21.07 9.45-15.98 11.05-25.599 29.69-31.059 47.75-8.8 2.54-13.781-4.259-13.111-12.789-4.55 8.79 1.8206 20.609 5.0406 29.869 7.3-3.33 15.54-2.8594 23.25-4.6094 9.39-25.39 35.43-42.16 45.42-68.02-0.21-22.71-0.3206-47.319-12.591-67.339zm49.453 209.44c-0.9633 0.009-2.1722 0.29312-3.6734 0.92184-10.06 8.21-23.469 2.68-34.639-0.25-8.14 13.22-24.441 8.2697-37.311 7.9797-6.16 8.75-17.559 4.5206-26.239 6.5906l0.3 0.87032c6.05 9.35 0.1791 22.21 0.9891 32.85 9.07-6.3 8.9706-19.861 19.241-25.791 26.57-4.83 53.84-10.251 81.25-11.941 0.19 1.33 0.5797 4.0013 0.7797 5.3313 0.7875-3.2113 6.0465-16.628-0.6969-16.562zm-109.04 15.752c-17.01 2.25-33.989 5.8306-51.289 3.0906-18.22 8.12-40.05-2.5003-60.1 1.6297-4.73 1.92-14.331 7.7394-7.5609 12.959 18.46 1.32 36.971-2.0597 55.481-0.92968 10.23 1 21.929-6.029 31.039 1.161-25.24 32.72-27.999 77.01-29.809 116.65-2.61 3.47-5.3906 6.8897-5.9406 11.38 10.22-1.56 19.371-10.71 19.541-21.33 0.48-19.3-0.5-38.821 3.05-57.911 2.65-21.65 21.11-35.839 30.38-54.489 1.83-4.51 7.13-13.531 7.05-2.1813 4.11-2.04 6.9794-5.5897 8.1594-10.03z" fill="#4f2b02"/>
<path id="path112" d="m1999.2 735.64c-2.6097 0.003-4.5462 1.0572-4.275 4.2859 0.47-0.02 1.4191-0.0691 1.8891-0.0891 4.22 0.05 8.3503-1.2712 12.52-1.3812-2.3119-1.0856-6.779-2.8194-10.134-2.8156zm-25.036 94.047c-8.25 18.62-17.72 37.57-21.45 57.85-3.85 12.46 13.13 7.839 19.13 11.239 12.03 11.47 6.0106 28.53 5.3906 43.1-3.31 5.09-10.35 6.781-11.98 13.211-9.45 10.75-27.06 8.8287-39 11.869-2.23 17.36-9.05 37.681 5.25 49.691 12.28 6.6 26.72 5.2703 39.75 9.3703 29.63-1.97 63.85 6.0994 89.97-10.091-7.71-0.79-2.7006-10.629-4.1406-15.559-1.37-1.16-2.6797-6.0406-4.5797-3.6906-3.38 7.16-12.67 4.8609-15.45 12.911-17.61 1.07-30.02-15.511-32.03-31.581-7.07-19.47-4.0112-41.78-14.481-59.95-0.38-17.65-1.2697-35.3-2.1297-52.93 2.13-11.75 1.37-23.779-3.65-34.689-3.55 0.89-7.31 1.14-10.6-0.75zm-195.31 65.48c-1.7 11.8-4.8097 23.589-3.6797 35.609 8.22 0.21 17.01 1.451 24.95-0.98904 0.07-10.51 0.1097-21.021-0.4203-31.491-7.04-0.5-14.4 0.23032-20.85-3.1297z" fill="#989797"/>
<path id="path120" d="m2125.8 791.37c-23.282-0.11839-46.56 6.905-67.28 17.519 3.6 4.52-1.98 3.8487-5.3 4.1187-0.41 17.06 21.941 1.6303 29.291 11.52 5.04 7.42-0.6303 16.29 0.3797 24.4 4.8-0.47 6.85-12.32 4.5-18.47 5.96-5.75 10.76-13.44 19.45-15.33 14.81 9.14 32.91 11.77 49.62 14.1 12.46-6.64 23.561 1.2697 29.891 11.68 3.95-0.32 13.049-1.86 9.4094-7.6-12.68-22.39-41.101-25.739-59.991-41.439-3.3188-0.31875-6.6443-0.48152-9.9703-0.49844zm-11.981 57.3c-5.068 0.0247-9.5359 1.7922-11.838 7.4688-5.01 9.09-15.31 12.089-22.83 18.409-0.92 6.8-1.61 13.65-1.9 20.52 7.3 0.14 14.669 0.29904 21.909-0.91096-5.46-1.29-11.209-4.2187-7.1094-10.869 8.94-14.21 25.9-21.301 39.03-31.141-5.0044-1.2962-11.519-3.5062-17.262-3.4782z" fill="#ffe5f6"/>
<path id="path134" d="m2174.6 851.63c17.88-9.28 37.74-12.43 57.71-12.23 23.69 5.28 34.88 27.75 51.48 42.82 18.22 31.17 25.08 67.6 25.98 103.2-1.8 5.55-8.32 8.02-13.66 8.83-3.04-3.82 4.83-4.54 6.06-7.54 3.7-9.99 0.39-27.28-13.56-25.03-10.94-13.16-5.11-33.09-5.6-49.22 0.2-5.89-7.93-2.69-9.45-7.67 1.65-4.55 1.84-11.87-4.69-11.96 0.84-0.73 1.65-1.47 2.46-2.22-10.75-9.76-28.35-11.44-35.71-24.83 2.22-5.51-3.14-1.74-4.76 0.77-0.78 1.05-1.5 2.19-1.78 3.5-1.82 12.42-22.53 14.52-31.12 7.01-3.6-4.93-6.36 1.36-8.88 3.71-24.48 1.57-49.27 1.69-73.41 6.32 1.02 11.79 20.46 2.09 27.64 6.76-11.91 0.63-23.85 0.26-35.73-0.54 15.39-22.38 40.11-37.96 67.02-41.68z" fill="#e8ffe5"/>
<path id="path140" d="m2235.5 862.94c-1.1707-0.0202-3.6437 2.0406-4.6562 3.6094 3.62 6.92 1.0097 17.99 3.3797 26.28 11.52 0.52 23.1 0.28 34.63 0 0.84-0.73 1.6509-1.4703 2.4609-2.2203-10.75-9.76-28.351-11.44-35.711-24.83 0.8325-2.0662 0.5993-2.827-0.1032-2.839zm-6.4359 7.1094c-1.82 12.42-22.53 14.519-31.12 7.0094-3.6-4.93-6.3597 1.361-8.8797 3.711-24.48 1.57-49.271 1.6903-73.411 6.3203 1.02 11.79 20.461 2.0894 27.641 6.7594-11.91 0.63-23.85 0.25936-35.73-0.54064 21.68 4.75 57.5-0.95968 84.32 0.62032-2.32-14.41 5.9797-15.399 3.2297-0.039 11.61 0.29 23.23 0.009 34.85 0.35936-1.07-8.02-1.47-16.13-0.9-24.2zm44.48 34.741c-1.65 6.05-1.1194 14.179-7.4594 17.669-0.36 2.43-0.66 4.88-0.9 7.35 1.48 17.35-1.7506 35.02 0.1094 52.5 14.31 7.92 5.6594-21.56 16.109-21.95 6.43 10.56-2.1594 31.331 14.691 33.891-3.04-3.82 4.8294-4.5406 6.0594-7.5406 3.7-9.99 0.3906-27.28-13.559-25.03-10.94-13.16-5.11-33.09-5.6-49.22 0.2-5.89-7.93-2.6887-9.45-7.6687z" fill="#d6ebd3"/>
<path id="path148" d="m2257.8 900.13c-60.451 0.0606-120.91 2.4203-181.34 1.211-1.22 4.06-1.6 8.2897-1.75 12.53 56.85-10.11 116.23-4.751 172.26 0.98904-4.7216 0.41296-9.461 0.48072-14.186 0.67192 16.011 0.0434 42.129 8.0626 37.106-15.381-4.03-0.0182-8.0606-0.0243-12.091-0.0203zm-25.016 15.402c-1.4248-0.004-2.7786 0.0481-4.0141 0.1984 1.3362-0.0862 2.6747-0.14424 4.0141-0.1984zm20.942 7.2781c-1.7822 0.0218-4.004 0.53408-5.2859 0.42032-54.25 9.47-109.62 0.67032-164.23 5.7703-7.69 2.37 1.8 10.651-0.55 15.641-6.34 27.28-0.3906 55.249-2.9906 82.769-1.19 10.48-13.589 13.561-22.459 12.731-14.59 1.68-32.02 2.7191-45.1 2.8391 15.95 19.05 23.679 48.221 49.789 57.061 19.01 13.24 43.01 9.6097 64.82 10.18 20.04 1.68 40.161 0.2494 60.161-1.2906 14.43-1.45 25.94-13.229 40.7-12.639 4.8 10.02-27.09 9.8488-15.7 15.819 6.9-2.72 14.729-5.3594 19.069-11.559 7.99-57.65 16.011-115.31 23.541-173.02 2.0925-3.9656 0.5274-4.7483-1.7641-4.7203z" fill="#b2c7ff"/>
<path id="path152" d="m2144.9 908.2c-23.536 0.0126-47.048 1.5662-70.144 5.6734 50.13 8.26 102.99-0.71064 154.06 1.8594 6.05-0.39 12.14-0.34032 18.2-0.87032-33.268-3.4081-67.717-6.681-102.12-6.6625zm70.675 14.564c-47.538-0.0947-95.069 1.9069-142.56 0.46872-2.33 24.31-5.81 48.511-8.85 72.741 1 7.81 7.8997 19.38-1.4703 23.75-9.29 6.39-18.139 17.76-30.839 14.82-2.82 0.42-1.1497-2.3103-1.0797-3.8703-20.5 0.6-41 0.33-61.5 0.15 2.56 21.6 6.32 43.089 9.3 64.659 1.64 11.53 4.3191 25.871 18.989 25.991 16.96 9.01 36.651 6.3597 54.841 11.33 53.54-0.32 112.13 6.0294 160.52-20.691-11.39-5.97 20.5-5.7988 15.7-15.819-14.76-0.59-26.27 11.189-40.7 12.639-20 1.54-40.121 2.9706-60.161 1.2906-21.81-0.57-45.81 3.0603-64.82-10.18-26.11-8.84-33.839-38.011-49.789-57.061 13.08-0.12 30.51-1.1591 45.1-2.8391 8.87 0.83 21.269-2.2512 22.459-12.731 2.6-27.52-3.3494-55.489 2.9906-82.769 2.35-4.99-7.14-13.271 0.55-15.641 54.61-5.1 109.98 3.6997 164.23-5.7703-10.971-0.31312-21.941-0.44688-32.911-0.46872zm18.941 186.12c-2.15 1.27-4.2697 2.5709-6.3797 3.9109 2.1-1.18 5.5097-1.2609 6.3797-3.9109z" fill="#9badde"/>
<path id="path154" d="m1813.2 910.72c44.44 1.41 88.84 3.81 133.26 5.58 1.62 0.12 5.89 1.13 2.01 3.11-6.84 6.34-12.37 14.22-19.33 20.29-96.36 5.24-192.76 9.73-289.11 15.16 4.44-9.98 15.82-17.24 23.46-25.49 35.49-5.65 71.28-9.7 106.86-14.96 0.66 7.39-2.55 15.78 0.97 22.71 13.83-0.58 29.15 1.78 41.48-5.43 2.4-6.66 1.07-14.07 0.4-20.97z" fill="#48b300"/>
<path id="path174" d="m1964.5 1154.8c-13.42-0.1729-25.934 6.3063-39.003 6.8875-6.78-1.24-22.481-7.5212-23.411 2.2188 18.34 3.61 36.72 3.6303 55.32 5.0203 6.34-0.09 17.84-5.94 13.35-13.85-1.19-0.15-2.3694-0.2-3.5594-0.15-0.9031-0.074-1.8022-0.1151-2.6968-0.1266zm-160.11 8.2c-1.0683-0.069-2.0853 0.077-2.9234 0.4875-8 2.83-18.89 0.1588-24.93 6.4188-13.32-2.14-26.719-0.5197-40.089-1.7797 1.11 14.71 20.019 2.76 28.659 5.95 14.42 6.58 31.801 4.4997 45.891-2.2203 3.6319-4.2332-1.9786-8.5577-6.6078-8.8563z" fill="#343333"/>
<path id="path4" d="m1826.5 6.45c-15.47 7.53-28.6 20.211-44.57 27.491-31.05 13.63-47 49.439-80.6 58.439-4.08 2.11-11.16-0.15031-13.53 4.6297 18.7 21.17 47.92 31.271 74.1 34.981-9.3 22.61-8.7906 52.509-30.991 67.939-4.95 5.12-13.609 3.8206-18.189 9.0406 9.64 7.94 24.91 7.1897 36.33 2.4297 8.9 8.76-5.8003 11.11-12.02 15.63-16.87 9.7-22.41 29.95-32.7 45.3-15.07 21.61-21.98 48.22-40.48 67.5-13.71 14.03-15.179 34.42-23.759 51.28-5.78 15.22-15.861 30.041-13.831 47.031 6.9 9.91 18.52 15.65 29.97 18.6 18.76 7.95 38.111 15.819 58.941 15.089 9.59-1.79 1.65 7.9309-0.2 11.211-17.78 20.44-23.31 47.94-39.7 69.23-12.19 17.98-20.04 42.61-8.2203 62.75 23.91 47.1 43.559 96.789 75.859 139.09 9.59 12.2 7.35 31.161 22 39.581-1.69 9.85-0.3891 18.489 3.7109 25.789-17.83 18.62-34.851 38.211-45.761 61.811-0.36 8.97-6.5197 18.53-16.03 19.45-14.7-3.54-30.78 1.9387-43.97 8.5187-13.13 2.73-31.71 5.661-34.08 22.361-18.96 7.35-28.069 29.42-25.659 48.48 4.96 9.09 17.459 7.4697 26.139 8.3297 17.74 3.65 36.541 1.65 53.731-3.35-5.21 25.25-16.971 48.93-19.031 74.85-2.05 21.05-3.3497 42.251-2.9297 63.411 1.4 5.54 9.8809-0.12 10.911 4.35-8.1 16.03-6.2109 35.239-6.4609 52.409 14.54 9.31 33.601 1.4694 49.391 8.0594 24.33 7.71 49.989 2.1703 74.639 5.5703 11.71-5.16 26.421-6.07 35.031-16.45 12.82-2.56 26.159 0.1806 38.939-2.8594 7.62-1.11 16.621-4.6109 22.991 1.2891 25.95 6.76 53.529 4.1912 79.809 1.6312 7.07-5.75 22.481-5.6809 16.761-19.161-9.07-13.7-30.121-4.4997-43.011-12.23-14.7-9-34.749-5.0606-47.339-17.741-2.07-1.89-2.52-6.3197 1.25-6.2797 9.09-1.21 20.13-7.2103 27.93-2.3703 3.6-2.65 2.7397-7.3191 1.4297-10.939-1.26-30.43-1.2897-60.97-1.6297-91.47 8.31 2.48 15.519 8.1503 24.409 8.7703 6.48 1.65 18.96 0.1097 17.52 10.58 2.66 28.4 11.5 57.399 10.35 85.409 15.89 17.48 41.54 22.08 64.07 19.27 33.62 4.23 67.539 0.13 101.29 0.65 30.55-6.1 60.681-15.659 88.791-29.039 2.11-1.34 4.2297-2.6409 6.3797-3.9109 7.82-2.67 4.8006-10.929 5.0906-17.259 6.93-50.12 13.679-100.28 20.539-150.42 2.98 11.56-0.2297 29.631 0.5703 43.141 5.63 6.05 13.25 3.9694 19.9 1.9594 1.97 9.78 15.33 16.66 24.18 10.67 15.16-5.88 10.01-24.43 7.6703-36.63 0.08-27.47-10.98-53.041-22.25-77.491-8.82-8.57-16.959-17.74-24.739-27.28 12.35-18.02 1.4388-49.75-20.331-58.22 2.48-23.47-21.959-38.92-41.859-43.48-10.45-10.28-23.26-1.3403-33.65 3.0297-18.47-2.05-41.999 11.921-44.809 29.141-26.06 0.77-52 8.3694-72.67 23.809-5.55-17.16-7.1706-37.54-13.941-55.12-3.41-19.16-19.44-35.759-39.82-35.209 0.86-16.43-3.49-34.37-17.8-44.17-13.2-26.98-3.2688-58.07-5.0188-86.73 7.72-42.12 9.6388-87.061-5.3312-127.81-14.22-22.05-12.139-52.359-6.2094-75.119 1.93-37.84 9.7394-75.29 3.6594-113.3-6.41-12.1-16.329-22.251-28.589-28.431-14.21-6.46-22.521-26.57-40.591-23.25-1.23-7.4 1.3197-15.18 3.1797-22.28 10.35 1.93 17.761-3.69 22.681-12.1 16.1-15.31 17.809-38.28 28.509-56.68-6.07-27.66 17.69-47.391 20.82-72.991 1.33-15.33-14.14-26.21-28.53-23.58-34.5-25.279-79.3-17.899-118.6-26.659zm3.5656 5.3969c13.234 0.14971 26.59 6.5688 40.275 4.5125-23.15 14.12-31.87 40.85-41.72 64.47-2.23 5.59 1.1003 10.69 2.1203 15.87-11.8 10.12-9.5406 27.98-7.6406 41.75 4.49-0.24 2.45 6.9294 0.4 9.5594 0.35-2.92-0.7197-5.8091-0.4297-8.7391-6.61-1.66-11.26-7.9603-18.93-6.5203-5.2-7.62 4.3594-19.67-0.3406-27.68-6.64-2.51-18.36-2.8709-20.85 6.0391-4.47 6.71 2.19 13.851 1.65 20.861-29.66-7.11-65.36-9.4506-87.28-32.991 23.22-4.73 40.48-23.47 57.65-39 19.25-21.26 48.18-28.92 69.43-47.77 1.8862-0.2775 3.775-0.38389 5.6656-0.3625zm53.264 6.1438c21.51 0.07 42.861 7.57 60.661 19.35 13.15-3.1 27.779 6.4697 25.009 20.83-0.85 14.26-10.841 25.73-15.441 38.87-2.68-4.58 3.5612-18.581-5.7188-15.311-7.52 1.77 5.3197-11-5.5703-6.6297-22.47 5.59-44.49-0.58969-64.12-11.03-14.03 11.44-16.24 33.73-17.6 51.52-3.4-2.44-5.9397-11.441-9.8297-16.341-14.42 3.12-22.541-17.75-12.161-29.3 8.79-20.95 19.84-47.789 44.77-51.959zm-2.1078 51.167c0.9996 0.0208 1.9815 0.55156 2.7578 1.8828 15.92 12.07 36.96 10.94 55.77 9.1297 2.68 5.15 10.55 5.95 8.5297 13.2 0 5.78 0.041 11.569 0.091 17.359-4.98-0.69-15.36-5.5094-16.38 1.2406 6.89 0.09 17.08 1.28 16.4 10.75-6.54-1.7-15.301-3.4403-21.041-0.87031 3.03 3.66-2.65 9.4697 1.35 13.48 4.72 5.14 13.48-1.0403 11.23-7.4703 0.15-6.88 11.85 1.5303 6.7797 5.7703-9.07 11.34-8.1888 28.18-17.919 38.65 0.21 1.39 0.58 3.0906-1.45 2.8406-7.18 7.91-12.721 22.799-25.761 18.809-14.82-12.78-39.009-9.25-52.439-24.2-4.42-6.35 4.0197-25.459-4.9203-25.239 0.92 11.28-4.6709 25.509 5.7891 33.869 13.24 7.02 28.7 10.14 41.97 15.75 14.06 1.89-0.1303 17.22 1.6297 25.77-25.69 0.42-53.31 3.7697-75.53-11.82 19.83-18.94 16.58-48.319 17.92-72.109-0.68-1.45-1.2503-2.9403-1.5203-4.5203-1.79 2.53-5.14 5.0406-8.2 2.9406 0-10.99-3.4294-29.35 10.091-34.13 13.88 0.3 16.429 14.96 23.259 24.53 7.37 2.21 5.2803-7.9709 6.2703-12.561-1.05-14.22 3.4106-28.389 11.041-40.269 0.9-1.4375 2.6152-2.8175 4.2813-2.7828zm9.414 28.581c-6.2812 0.08125-12.501 2.2156-17.286 6.5906-0.17 1.21-0.3094 2.43-0.4594 3.65 8.19 1.36 15.499-7.69 23.969-4.05 4.21 1.04 11.721 7.6306 11.431-0.45938-5.03-3.84-11.373-5.8125-17.655-5.7312zm-48.652 8.5766c-8.4828 0.29726-8.8991 11.263-7.1844 17.744 3.33 0.45 11.001 2.3209 9.7906-2.7391-6.91 1.51-8.1212-5.4709-4.7312-9.2609 2.57-1.03 8.0403-4.2491 2.9703-5.7391-0.2906-0.0131-0.5717-0.0143-0.8453-0.005zm-45.452 3.475c3.8849-0.0917 2.356 6.6081-0.1922 9.0297-0.86 100.69-0.0009 201.45-0.4109 302.15-1.73 0-5.1894-0.0103-6.9094-0.0203-0.42-101.87 2.5791-203.68 1.8891-305.55-5.67-1.37-0.039-4.2106 2.8812-4.7906 1.1188-0.55313 2.0228-0.80177 2.7422-0.81876zm96.944 1.2938c-2.3317 0.0391-4.3916 0.41437-5.7172 1.2656-4.9 1.77-9.9588 2.48-15.119 1.95-0.35 4.16 6.93 6.2497 10.8 4.8297-2.66 13.79 19.869 12.46 18.069-0.85 17.282-1.2106 2.071-7.3648-8.0328-7.1953zm-3.586 7.9953c8 0.75-1.68 9.8 0 0zm29.2 2.3609c-9.71 14.49 17.479 20.379 2.0891 30.669 6.74-1.23 14.401-10.16 5.0906-14.3-7.28-2.46-1.2797-16.079-7.1797-16.369zm15.3 5.55c6.15 4.07-7.27 7.43 0 0zm-167.17 6.1031c2.5362-0.0716 5.7525 1.0747 7.7156 1.0859 6.39 0.21 11.07 3.5 9.1797 10.45-0.36 20.63 0.2191 41.281-0.3109 61.911-13.43 5.72-16.389-0.97031-27.659 5.5797-1.78 2.02-4.2494-0.61093-2.0594-2.3109 3.67-9.53-8.48-4.3291-11.55-0.53907-4.72-0.18-16.421 4.01-18.211-0.85 28.93-11.68 32.3-45.581 39.12-71.841 0.2406-2.6381 1.8024-3.4302 3.775-3.4859zm38.606 4.3219c1.5744-0.0411 3.7869 0.83 6.8594 2.975 14.82 0.67 0.85 18.449 7.35 24.609 5.73-6.03 7.8594-16.98 9.9094-25.17 1.28 10.6 2.4506 22.05-0.8094 32.32-0.65 15.08-9.8006 33.98-26.591 35.62 0.81-18.37 0.38-36.771 0.35-55.161-0.7725-6.7425-1.7919-15.07 2.9312-15.194zm103.42 7.6031c-0.3025 0.0157-0.6066 0.0522-0.9141 0.11094-1.41 5.85 5.7188 8.2706 10.269 8.1406-0.9282-4.05-4.8181-8.4873-9.3547-8.2516zm-25.1 12.18c1.7 20.97 26.799 19.869 42.009 16.909 0.3-0.57 0.8797-1.7097 1.1797-2.2797 0.33-12.05-16.669-7.8394-24.289-6.1094-8.19 4.6-12.34-6.2003-18.9-8.5203zm14.359 20.759c0.25 5.74 15.56 6.1512 17.77 2.2312-5.21-2.85-11.98-1.4212-17.77-2.2312zm-88.845 31.816c10.841-0.25545 19.358 11.973 30.766 13.366 21.97 1.69 44.1 2.3491 66.13 1.1891 11.88 5.06 18.609 17.46 30.259 23.02 13.84 7.74 30.491 19.731 28.441 37.641-1.75 18.72 2.5103 37.519 0.1203 56.119-5.41 15.93-4.6703 32.871-5.6703 49.341-4.87 1.51-9.8606 2.6194-14.841 3.6594-3.08 3.13-14.39 3.5006-17.78-1.0594 23.38-25.88 16.211-63.269 23.791-94.209 2.57-8.88 5.53-17.61 9-26.17 0.91-2.74-4.7309-2.2297-4.5109 0.27031-14.94 26.23-11.87 57.199-17.25 85.969-1.73 9.63-6.98 18.171-11.1 26.911-17.53 19.3-49.48 17.01-63.33 40.67 1.71 2.69 6.1606 4.2391 7.3406-0.41093 9.38-13.94 27.439-16.21 41.359-23.72-4.33 17.84-21.78 29.721-23.62 48.461 9.49 12.83-7.2688 19.25-15.469 23.83-16.49-3.34-32.99-7.9106-49.4-10.291-6.51 5.2-5.4203-9.7491 0.5297-7.8391 8.95-1.28 10.839-12.94 7.6594-20.08-6.02-5.64-13.79-8.5306-20.95-12.291-4.01-1-10.709-0.48062-7.9594-7.3906 0.09-68.47-0.2909-136.95 0.1891-205.41 2.2-1.0516 4.2878-1.5277 6.2953-1.575zm-25.484 1.3656c-0.62 66.84-1.7509 133.69-1.8609 200.54-4.6-0.41-9.2291-0.08-13.839-0.3-15.18 3.12-24.38 24.431-42.1 14.791-8.81-0.39 3.1603-12.8-6.5797-9.6297 0.64-11.5-0.3012-23.19 0.9688-34.57 14.31-18.65 16.661-46.531 38.781-58.561 2.05-2.66 4.3491-5.1188 6.7391-7.4688-0.8-1.61-1.0303-4.6503-3.5703-3.7203-10.53 10-22.609 18.89-28.939 32.37-4.58-0.15-8.88-3.07-12.8-5.4-10.75-4.2-18.591-14.17-29.961-17-2.29-0.67-3.04 1.5991-2.85 3.4391 10.09 5.44 19.491 12.1 29.011 18.43 4.56 2.45 9.9497 3.9406 14.03 6.9906-0.63 10.3-10.289 11.859-18.059 7.4594-13.47-6.76-28.98-10.61-39.87-21.63 21.57-33.47 35.569-72.02 60.839-102.92 15.93-8.62 31.481-21.279 50.061-22.819zm28.622 15.13c-0.6445-0.0133-1.3016 0.0366-1.9719 0.15938-1.57 3.48 4.6694 4.3109 6.5094 6.6109 22.92 20.75 56.77 26.589 85.8 16.809 3.67-0.62 1.7909-4.6194-0.9891-5.0094-0.39 0.11-1.1803 0.31969-1.5703 0.42969-23.63 7.22-51.081 5.0203-71.391-9.8797-5.075-2.9634-10.157-8.9913-16.388-9.1203zm-58.7 4.82c3.84 4.28 4.3903 16.25 10.82 16.57 1.17-7.04-3.8803-15-10.82-16.57zm10.08 30.43c0.38 11.11 1.9506 23.201 4.8406 33.741 2.51-10.62-1.5606-25.691-4.8406-33.741zm-94.2 78.42c10.33 12.76 27.11 16.16 41.27 22.98 5.53 0.81 18.031 2.7406 9.1406 8.4906-6.99 9.9-13.091 22.74-23.931 30.08-1.6 9.87-18.08-5.1206-26.85-3.5906-19.2-0.67-1.4594 6.71 6.3906 7.35 24.79 1.65 38.931 30.82 64.891 28.8 5.71 0.29 8.58-6.2591 13.4-7.7891 5.69-8.25 17.54-11.95 27.38-11.17 4.74 10.64-14.65 0.63938-6.7 11.159 16.83-1.1 34.42 0.0303 48.88 9.8203 4.8 2.02 4.6203 7.9097 4.0703 12.33-1.84 5.18-10.18 1.2206-11.52 6.3906 0.37 11.84-3.5706 23.39-7.9906 34.15-10.95 1.5-21.549-1.3003-32.209-3.1703-19.14-5.52-35.43-20.62-56.3-18.72-27.66 2.91-52.289-11.59-77.409-20.38-20.49-8.4-8.39-30.769-1.8-45.059 11.13-19.9 12.009-45.59 29.289-61.67zm200.9 34.6c-15 3.06-28.74 11.451-44.45 11.791-1.44 0.2-2.89 0.39969-4.35 0.42969-2.28 0.93-3.4891 5.3791 0.061 5.0391 16.76-1.88 33.259-6.8297 48.009-15.08 0.18-0.55 0.5497-1.6297 0.7297-2.1797zm-156.42 13.491c6 6.64-0.76 22.349 2.5 32.939-7.42-2.28-13.62-9.9091-19.85-14.039 5.33-6.04 12.98-11.38 17.35-18.9zm242.97 8.2094c-0.06 22.09-4.5391 46.75 9.6109 65.82 15.33 42.32 11.039 88.67 4.2188 132.27 2.56 29.63-12.689 71.01 15.741 91.65 7.86 11.69 10.32 28.249 3.85 41.059-1.82 4.41 3.09 19.001-4.9 14.741-2.52-7.1 2.3397-19.281-6.7203-22.981-6.2-2.4-5.5-9.98-6.7-15.25-6.07-3.4 1.1409 10.861-4.8391 7.5109-9.69-0.21-24.501-6.2803-27.911 6.7297 3.74 5.29-1.1303 9.5806-0.5703 1.5406-4.42-8.6-8.4188-17.55-12.819-26.17 17.83-24.71 9.9394-56.3 10.309-84.65-4.02-21.88-8.3306-43.951-16.541-64.711-6.39-30.03 7.9606-60.66-1.6594-90.3 0.06-16.77-8.3003-32.799-3.9203-49.059-4.1-4.35 5.2606-5.9503 7.6906-7.8703 9.48 9.18 24.339 2.6803 35.159-0.32969zm-47.881 23.806c1.9726-0.16827 4.3885 1.6194 1.8516 4.6031-0.24 22.52 8.8603 44.151 6.2703 66.741-3.35 17.03-3.5503 34.751-2.0203 51.941 16.21 40.29 18.87 84.15 16.85 127-2.85 5.77-3.87 15.709-10.15 17.659-12.91-30.29-33.441-57.841-43.341-89.041-1.47-4.76-6.8194-8.6691-5.0094 0.0609 11.96 32.61 31.511 61.779 45.441 93.589 16.39 26.14 23.39 56.601 33.7 85.241 10.1 16.31 23.649 37.83 12.809 57.1-5.86 15.55-14.44 30.221-17.07 46.841-0.47 3.75-4.0203 8.9294 1.0797 10.909-19.41 6.29-38.249-1.5897-57.719-2.9797-16.44 0.6-32.661-2.25-48.911 0.15 9.21-24.31 34.22-40.491 43.33-65.641 1.01-19.05 0.03-38.77-5.8-57.05-20.77-41.2-32.989-86.65-54.639-127.18-11.21-16.02-7.5497 21.431 3.6703 17.491 13.2 32.43 24.939 65.54 39.209 97.45 12.27 20.02 12.381 44.629 12.591 67.339-9.99 25.86-36.03 42.63-45.42 68.02-7.71 1.75-15.95 1.2794-23.25 4.6094-2.67 6.52-8.71-3.6597-11.05-6.6297-1.82-28.37-0.9397-65.109-0.4797-96.609-0.99-97.73-0.2409-195.54-0.3609-293.29-3.22-3.29-4.5391 0.0106-6.4891 1.6906 1.53 129.29-0.5606 258.59-0.6406 387.88-2.62-1.24-12.09 3.2603-8-4.9797 0.25-127.35 0.4897-257.03 2.0297-382.89 10.31 0.66 5.1209-6.65-1.0391-6.2 6.83-1.73 16.61 0.86093 24.25-0.43907 5.68-7.22 5.0391-17.78 8.8391-26.05 15.72 4.5 31.571 8.37 47.641 11.5 0.02 4.84 5.9197 12.869 2.2297 21.789 10.77 21.87 10.9 48.011 7.25 72.491 5.1 17.84-16.89 11.489-26.07 18.889-3.96 1.48-15.06 8.75-7.3 11.7 9.7-9.81 23.54-11.929 36.47-14.259 1.62-25.67 8.71-57.96-4.25-80.92 1.12-11.14-5.7797-25.07 4.2703-33.6 7.49-2.87 18.6-9.1797 14.82-19.08-5.03-13.53 6.81-23.53 12.5-34.33 0.2063-0.95625 1.0112-1.4376 1.9078-1.5141zm-182.68 51.786c3.4062-0.17749 7.9115 1.1934 11.052 2.1984 14.26 8.86 33.06 11.22 43.1 25.9-1.76 128.93-0.65 257.95-1 386.93 2.88 4.01-6.55-1.18-6.15 4 4.46-0.72 0.4491 8.9903-0.7609 3.2203 2.35 16.29-13.97-6.04-22.38 0.2-9.59 5.56-20.63 5.1994-31.4 4.8594 12.12-31.22 33.741-59.64 57.591-83.5 0.72-5.79-7.8897-2.0194-8.5797-6.9594 0.43-6.53 2.3097-14.95-1.9203-19.37-8.19-4.01-8.72-13.36-11.9-20.8-7.05-20.17-22.7-35.541-33.23-53.761-17.83-35.32-35.87-70.53-52.47-106.48-10.36-25.47 6.8894-49.75 20.509-70 9.53-20.53 18.77-41.6 33.08-59.35-1.255-5.185 1.0531-6.91 4.4594-7.0875zm225.27 240.19c6.8665 0.35508 2.6253 13.231 3.9938 18.034-1.41 6.09 4.06 19.33-5.1 20.88-5.78-10.93-16.15-30.53-1.4-38.6 0.9665-0.25406 1.7959-0.35079 2.5062-0.31406zm10.334 1.0141c6.89 0.38 6.1503 10.481 9.6703 15.041 3.94-0.61 2.5191-4.27 1.8891-7 13.76 3.49-0.2803 28.279 18.68 27.069-2.58 13.04-23.93 5.86-17-5.45-0.08-3.37-0.6288-17.31-6.5688-10.63 2.54 5.27 3.33 13.55 1 18.67-15.65-2.53-8.7403-27.15-7.6703-37.7zm37.855 11.189c15.128 0.34267 27.202 11.697 31.805 25.731 5.41 19.12 10.71 38.35 13.75 58.03-17.27-16.39-17.309-45.08-29.859-65.75-2.16-12.91-27.861-4.2997-18.761-17.93 1.0344-0.0775 2.0571-0.10409 3.0656-0.0812zm-1.1094 11.405c3.3554-0.004 7.8225 1.73 10.134 2.8156-4.17 0.11-8.3003 1.4312-12.52 1.3812 2.22 5.21-6.0291 2.5191-1.8891 0.0891-0.2712-3.2288 1.6653-4.283 4.275-4.2859zm4.6516 6.9078c10.783 0.38801 13.162 15.78 17.983 23.708 1.42 17.21 12.71 31.59 15.02 48.37-18.76 12.3-41.231 4.4497-62.141 5.0297-0.04-24.08-22.52-40.39-22.6-64.13 10.82-13.77 25.66 11.481 38.8 0.54062 5.95-1.8 4.3503-9.62 7.7703-12.7 1.915-0.62249 3.6268-0.87417 5.1672-0.81875zm186.22 11.264c1.3188-0.0267 2.685 0.14032 4.1125 0.56407 16.74 7.23 38.12 12.11 45.38 31.43-6.4 22.72 28.34 21.58 24.72 44.35 1.59 6.41 1.02 14.13 0 20.9-16.75-13.8-38.88-22.479-60.03-14.169-7.62-18.63-29.011-30.861-48.241-37.861-9.27-5.28-16.719-14.73-28.639-13.13 0.39-5.18 5.4888-10.65 9.6688-12.38 6.58-7.75 16.571-12.811 26.941-11.491 9.9138 1.6975 16.856-8.0272 26.088-8.2141zm-64.248 37.556c3.326 0.0169 6.6515 0.17969 9.9703 0.49844 18.89 15.7 47.311 19.049 59.991 41.439 3.64 5.74-5.4594 7.28-9.4094 7.6-11.81 7.68-26.351 7.9203-39.211 12.82-11.51-7.87-26.669-10.95-40.389-9.2203-10.2 5.15-13.291 19.41-26.241 20.87 1.37-5.22-0.2803-12.02 2.3797-16.45-1.01-8.11 4.6603-16.98-0.3797-24.4-7.35-9.89-29.701 5.5397-29.291-11.52 3.32-0.27 8.9 0.40128 5.3-4.1187 20.72-10.614 43.998-17.637 67.28-17.519zm-148.21 33.053c0.6623 0.0391 1.4116 0.2332 2.2422 0.61568 19.41 3.94 39.49-0.32 58.8 4.1-3.91 11.11 7.5597 21.639 18.38 17.189 5.31-4.7 5.94-14.54 1.05-19.98 6.25-0.86 14.69-1.3006 20.88 0.60936-8.14 57.68-14.32 115.65-21.88 173.41 1.44 4.93-3.5694 14.769 4.1406 15.559-26.12 16.19-60.34 8.1206-89.97 10.091-13.03-4.1-27.47-2.7703-39.75-9.3703-14.3-12.01-7.48-32.331-5.25-49.691 11.94-3.04 29.55-1.1187 39-11.869 1.63-6.43 8.6697-8.121 11.98-13.211 0.62-14.57 6.6394-31.63-5.3906-43.1-6-3.4-22.98 1.221-19.13-11.239 3.73-20.28 13.2-39.23 21.45-57.85-0.6744-2.7138 0.5786-5.4351 3.4484-5.2657zm70.686 4.425c6.187 0.15352 11.038 7.9375 5.9453 12.559-8.02 4.72-14.43-7.56-7.9-12.35 0.659-0.15936 1.3146-0.22528 1.9547-0.20936zm183.9 10.56c23.69 5.28 34.88 27.75 51.48 42.82 18.22 31.17 25.08 67.6 25.98 103.2-1.8 5.55-8.3194 8.0197-13.659 8.8297-16.85-2.56-8.2606-23.331-14.691-33.891-10.45 0.39-1.7994 29.87-16.109 21.95-1.86-17.48 1.3706-35.15-0.1094-52.5-6.01 4.45-4.59-10.26 0.9-7.35 6.34-3.49 5.8094-11.619 7.4594-17.669 1.65-4.55 1.8394-11.871-4.6906-11.961-11.53 0.28-23.11 0.52-34.63 0-2.37-8.29 0.2403-19.36-3.3797-26.28-0.78 1.05-1.4997 2.19-1.7797 3.5-0.57 8.07-0.17 16.18 0.9 24.2-11.62-0.35-23.24-0.0694-34.85-0.35936 2.75-15.36-5.5497-14.371-3.2297 0.039-26.82-1.58-62.64 4.1297-84.32-0.62032 15.39-22.38 40.11-37.96 67.02-41.68 17.88-9.28 37.739-12.43 57.709-12.23zm-118.49 9.2718c5.7437-0.028 12.258 2.1819 17.262 3.4782 4.51 0.52 8.8394 2.07 13.159 3.5-18.76 8.49-31.13 24.759-45.08 38.509-7.24 1.21-14.609 1.051-21.909 0.91096 0.29-6.87 0.98-13.72 1.9-20.52 7.52-6.32 17.82-9.3194 22.83-18.409 2.3016-5.6766 6.7695-7.4441 11.838-7.4688zm-248.39 44.198c3.2383 0.049 6.4541 0.6 9.5844 2 19.96-3.26 39.12 4.2597 58.72 5.0297 11.99-4.56 23.21 2.61 35.25 2.95 13.47 20.12 2.0403 52.86-22.98 54.87-11.16 7.11-27.631-3.6497-37.141 5.8203-10.56 2-20.92-1.3913-31.28-2.3313-7.96 11.98-24 6.45-35.87 6.9-11.03 10.39-27.451 3.9803-40.791 7.6203-15.64 5.11-32.22 3.03-48.3 2.25-9.75 9.15-22.669-0.30904-34.159 1.361-37.06-2-73.149 15.109-109.76 1.939-6.8-9.28-3.3403-27.9 9.9797-28.72 2.47-4.69-5.4503-3.2094-4.6203-7.3094 6.27-7.44 20.781-7.6994 19.891-20.059 2.31-13.07 25.439-1.1713 21.159-10.931 17.15-2.46 34.22-14.629 52.48-9.4687 13.99-5.53 30.62 3.2187 43.62-5.8813 6.85-1.93 16.991 1.941 19.741 8.061-36.17 5.23-72.42 10.04-108.62 15.05-7.05 1.76-9.5906 10.19-15.091 13.75-0.63 2.07-2.4397 3.2803-4.3797 4.0203-3.15 7.58-21.13 14.56-14.17 22.05 96.97-4.01 193.97-9.7403 291-14.17 15.9 2.68 23.1-13.951 33.1-22.811 2.94-3.74 10.92-9.12 7.3703-13.9-49.26-3.92-99.13-4.669-148.52-7.589 2.56-9.7 14.56-2.651 21.12-7.611 9.25 3.1641 21.1-3.0641 32.666-2.889zm-86.595 2.3c6.45 3.36 13.81 2.6297 20.85 3.1297 0.53 10.47 0.4903 20.981 0.4203 31.491-7.94 2.44-16.73 1.199-24.95 0.98904-1.13-12.02 1.9797-23.809 3.6797-35.609zm478.99 4.9594c4.03-0.004 8.0606 0.002 12.091 0.0203 5.47 25.53-26 13.74-41.12 15.58-51.07-2.57-103.93 6.4006-154.06-1.8594 0.15-4.24 0.53-8.4697 1.75-12.53 60.431 1.2094 120.89-1.1503 181.34-1.211zm-451.86 0.35c6.56 2.15-1.15 9.89 0 0zm7.3 10.241c44.44 1.41 88.839 3.8097 133.26 5.5797 1.62 0.12 5.8909 1.1294 2.0109 3.1094-6.84 6.34-12.37 14.221-19.33 20.291-96.36 5.24-192.76 9.7294-289.11 15.159 4.44-9.98 15.821-17.239 23.461-25.489 35.49-5.65 71.279-9.701 106.86-14.961 0.66 7.39-2.5497 15.781 0.9703 22.711 13.83-0.58 29.15 1.7803 41.48-5.4297 2.4-6.66 1.07-14.07 0.4-20.97zm-6.6016 0.3156c6.2124-0.14512 0.6191 12.141 2.6922 16.055-7.46-1.13-1.9012-11.11-3.3312-16 0.2256-0.0313 0.4386-0.05 0.639-0.0547zm408.89 11.725c10.97 0.0218 21.94 0.1556 32.911 0.46872 2.93 0.26 10.77-2.75 7.05 4.3-7.53 57.71-15.551 115.37-23.541 173.02-4.34 6.2-12.169 8.8394-19.069 11.559-48.39 26.72-106.98 20.371-160.52 20.691-18.19-4.97-37.881-2.3197-54.841-11.33-14.67-0.12-17.349-14.461-18.989-25.991-2.98-21.57-6.74-43.059-9.3-64.659 20.5 0.18 41 0.45 61.5-0.15-0.07 1.56-1.7403 4.2903 1.0797 3.8703 12.7 2.94 21.549-8.4303 30.839-14.82 9.37-4.37 2.4703-15.94 1.4703-23.75 3.04-24.23 6.52-48.431 8.85-72.741 47.491 1.4382 95.022-0.56344 142.56-0.46872zm-297.04 41.617c6.7434-0.0657 1.4844 13.351 0.6969 16.562-5.36 43.1-0.3503 86.609-0.2703 129.84-30.54 10.61-65.839 10.88-98.809 7.9797 1.33-35.25-3.0006-70.209-2.1906-105.42-0.81-10.64 5.0609-23.5-0.9891-32.85-9.22 46.47 0.5888 93.89-1.8812 140.78 9.33 8.34-3.1091 24.03-1.1891 35.53-12.25-1.88-24.121-6.6394-34.891-12.759-9.33-5.69-21.49-3.9306-30-11.341 1.89-6.74 8.8803-10.571 13.47-15.341 6.19-17.34 2.0997-36.15 4.9797-54.05-2.88-29.27 19.73-50.59 33.87-73.15 0.08-11.35-5.22-2.3287-7.05 2.1813-9.27 18.65-27.73 32.839-30.38 54.489-3.55 19.09-2.57 38.611-3.05 57.911-0.17 10.62-9.3206 19.77-19.541 21.33-22.67 17.6-50.03-7.6009-75.08-5.3109-0.43-26.77 0.9506-53.74 5.3406-80.18 5.62-17.47 10.869-35.07 15.219-52.9 0.84-5.22 7.9709-1.5497 11.311-2.8297 20.05-4.13 41.88 6.4903 60.1-1.6297 17.3 2.74 34.279-0.84064 51.289-3.0906 2.38-0.3 4.7812-0.46936 7.1812-0.50936 8.68-2.07 20.079 2.1594 26.239-6.5906 12.87 0.29 29.171 5.2403 37.311-7.9797 11.17 2.93 24.579 8.46 34.639 0.25 1.5012-0.62872 2.7101-0.91248 3.6734-0.92184zm-92.341 160.76c19.065 0.099 38.167 2.1484 57.208 0.2078 4.88-1.19 6.4594 5.29 9.6094 7.7 12.95 11.16 31.931 8.0506 46.211 16.791 8.34 5.34 19.72 2.0491 28 5.0891 1.19-0.05 2.3694 0 3.5594 0.15 4.06 0.95 10.91 1.87 7.8 8.2-11 8.17-24.461 12.421-38.091 12.091-19.97 0.5-41.879 2.5794-60.139-6.9906-18.26 1.33-36.78 5.0506-55.13 4.0906 0.45-6.08-2.0903-11.731-7.0203-15.211-0.02-10.86 3.2297-21.349 4.1797-32.109 1.2706-0.013 2.5415-0.014 3.8125-0.01zm-147.74 2.0078c21.05 6.91 44.37 14.699 66.38 7.2094 8.16 7.46 18.76 9.2503 29.02 11.77 12.27 8.4 26.65 12.151 40.75 16.161 5.34 1.27 4.6894 7.8391 4.2594 12.189-45.42 27.99-99.959 5.8609-148.59 2.9109 2.54-15.98-3.4003-37.051 8.1797-50.241z"/>
</g>
</svg>
