<?xml version="1.0" standalone="no"?>
<!DOCTYPE svg PUBLIC "-//W3C//DTD SVG 20010904//EN"
 "http://www.w3.org/TR/2001/REC-SVG-20010904/DTD/svg10.dtd">
<svg version="1.0" xmlns="http://www.w3.org/2000/svg"
 width="512.000000pt" height="512.000000pt" viewBox="0 0 512.000000 512.000000"
 preserveAspectRatio="xMidYMid meet">

<g transform="translate(0.000000,512.000000) scale(0.100000,-0.100000)"
fill="#000000" stroke="none">
<path d="M1271 5073 c-117 -137 -173 -325 -150 -512 17 -148 63 -283 197 -581
158 -353 204 -529 182 -701 -15 -125 -73 -262 -146 -347 -19 -22 -34 -43 -34
-46 0 -3 305 -6 678 -6 l678 0 36 48 c128 170 175 331 148 519 -20 147 -57
254 -200 578 -146 332 -180 449 -180 621 0 155 43 281 138 407 l51 67 -679 0
-678 0 -41 -47z m664 -588 c127 -33 237 -97 348 -204 118 -113 219 -270 248
-384 27 -109 -10 -239 -87 -307 -66 -58 -137 -84 -242 -88 -192 -9 -371 74
-537 249 -181 191 -259 389 -210 530 61 173 265 259 480 204z"/>
<path d="M1973 4212 c-13 -4 -32 -15 -44 -25 -19 -17 -21 -26 -17 -93 l5 -74
-109 0 -108 0 0 38 c0 41 14 62 42 62 22 0 22 1 4 45 -19 45 -55 47 -97 6 -31
-31 -36 -62 -20 -119 9 -31 9 -32 -20 -32 -27 0 -29 -2 -19 -20 7 -13 21 -20
39 -20 24 0 34 -8 55 -45 46 -78 148 -139 235 -139 47 0 56 3 78 29 23 26 25
35 20 92 l-5 63 119 0 118 0 7 -37 c6 -32 3 -40 -20 -60 -15 -13 -38 -23 -52
-23 -28 0 -28 2 -9 -44 17 -39 27 -42 87 -24 63 19 78 51 64 141 l-7 47 41 0
c38 0 40 2 30 20 -8 15 -21 20 -53 20 -37 0 -45 4 -62 32 -34 58 -94 115 -143
136 -54 22 -126 33 -159 24z m138 -82 c35 -10 91 -57 110 -92 9 -17 3 -18
-106 -18 l-115 0 0 44 c0 35 5 48 22 60 26 19 40 19 89 6z m-179 -172 c10 -68
-24 -96 -93 -78 -37 10 -109 70 -109 90 0 6 42 10 99 10 96 0 100 -1 103 -22z"/>
<path d="M1820 2714 c-431 -51 -807 -209 -1063 -445 -70 -64 -81 -71 -101 -61
-33 15 -59 76 -51 119 8 46 54 93 92 94 l28 1 -30 13 c-120 56 -235 -43 -235
-202 0 -29 6 -68 14 -86 14 -36 69 -87 92 -87 19 0 18 -2 -16 -64 -82 -144
-126 -362 -117 -576 9 -210 56 -357 155 -478 l46 -56 22 -156 c48 -321 115
-531 221 -692 l26 -38 280 0 280 0 -7 38 c-4 20 -9 101 -13 180 -7 164 -16
153 104 128 199 -42 310 -50 680 -51 l361 0 45 -75 c25 -41 68 -108 96 -148
l52 -72 275 0 276 0 -9 67 c-10 84 -11 319 -1 354 7 22 17 29 60 39 366 85
832 317 1088 542 194 171 210 204 218 451 l5 167 -162 0 -161 0 -29 58 c-101
200 -322 420 -516 514 -42 21 -45 24 -45 62 0 64 29 216 51 265 11 25 31 60
45 78 l25 33 -43 0 c-97 0 -229 -49 -337 -123 -25 -17 -77 -62 -118 -100 l-73
-69 -47 39 c-220 182 -517 294 -898 339 -148 17 -412 16 -565 -2z m440 -134
c69 -5 163 -17 210 -25 113 -21 270 -65 270 -77 0 -5 -7 -25 -15 -44 -17 -41
-5 -41 -159 0 -305 81 -651 73 -965 -24 -36 -10 -66 -18 -67 -17 -1 1 -11 21
-23 44 l-21 42 83 25 c120 36 274 66 395 75 151 12 153 12 292 1z m1658 -740
c84 -52 79 -176 -10 -230 -113 -68 -244 62 -183 181 34 65 128 89 193 49z"/>
</g>
</svg>
